# xmcd
#
# Track frame offsets:
#	150
#	17098
#	35863
#	57108
#	82533
#	95108
#	113488
#	129485
#	150830
#	169813
#
# Disc length: 2537
#
# Revision: 1
# Processed by: cddbd v1.5.1PL0 Copyright (c) Steve Scherf et al.
# Submitted via: VisiTrax 2.9.5.181 - For more info visit www.synapsa.com
# Normalized: r0:DSETVAR1
#
DISCID=6d09e70a
DTITLE=Various Artist - Lowenbrau Strong Cuts
DYEAR=1990
DGENRE=Rhythm and Blues
TTITLE0=Sybil - Don't make me over
TTITLE1=Art of noise featuring Tom Jones - Kiss
TTITLE2=Aretha Franklin - Who's zoomin' who
TTITLE3=Kane Gang - Respect yourself
TTITLE4=Los Lobos - La Bamba
TTITLE5=Innocence - Natural thing
TTITLE6=D-Mob featuring LRS - It is time to get funky
TTITLE7=James Brown - Living in America
TTITLE8=Lil Louis - French Kiss
TTITLE9=Black Box - Ride on time
EXTD=
EXTT0=
EXTT1=
EXTT2=
EXTT3=
EXTT4=
EXTT5=
EXTT6=
EXTT7=
EXTT8=
EXTT9=
PLAYORDER=
